<svg class="svg-icon" style="width: 1em; height: 1em;vertical-align: middle;fill: currentColor;overflow: hidden;" viewBox="0 0 1024 1024" version="1.1" xmlns="http://www.w3.org/2000/svg"><path d="M307.2 259.413333h409.6c17.066667 0 30.72-6.826667 40.96-17.066666s13.653333-27.306667 10.24-40.96l-13.653333-51.2c-10.24-27.306667-34.133333-44.373333-61.44-47.786667h-54.613334c-3.413333 0-3.413333 0-3.413333-3.413333l-13.653333-51.2c-10.24-27.306667-34.133333-44.373333-61.44-47.786667h-88.746667c-27.306667 0-54.613333 17.066667-61.44 44.373333l-13.653333 51.2-3.413334 3.413334h-54.613333c-27.306667 0-54.613333 20.48-61.44 47.786666l-13.653333 51.2c-3.413333 13.653333 0 30.72 10.24 40.96 0 13.653333 17.066667 20.48 34.133333 20.48z m23.893333-98.986666l3.413334-3.413334h54.613333c27.306667 0 54.613333-20.48 61.44-47.786666l13.653333-51.2 3.413334-3.413334h88.746666c3.413333 0 3.413333 0 3.413334 3.413334l13.653333 51.2c6.826667 27.306667 34.133333 47.786667 61.44 47.786666h54.613333c3.413333 0 3.413333 0 3.413334 3.413334l10.24 40.96-385.706667-3.413334 13.653333-37.546666z"  /><path d="M901.12 139.946667h-98.986667v58.026666h95.573334v771.413334h-768v-771.413334h95.573333v-58.026666h-98.986667c-30.72 0-54.613333 23.893333-54.613333 51.2v778.24c0 30.72 27.306667 54.613333 54.613333 51.2h774.826667c30.72 0 54.613333-23.893333 54.613333-51.2v-778.24c0-27.306667-27.306667-51.2-54.613333-51.2z"  /><path d="M409.6 563.2h341.333333v68.266667h-341.333333zM273.066667 716.8h102.4v102.4h-102.4zM273.066667 546.133333h102.4v102.4h-102.4zM273.066667 375.466667h102.4v102.4h-102.4zM409.6 733.866667h341.333333v68.266666h-341.333333zM409.6 392.533333h341.333333v68.266667h-341.333333z"  /></svg>