<svg version="1.1" id="Layer_1" xmlns="http://www.w3.org/2000/svg" xmlns:xlink="http://www.w3.org/1999/xlink" x="0px" y="0px"
	 width="100%" viewBox="0 0 512 512" enable-background="new 0 0 512 512" xml:space="preserve">
<path fill="#FFFFFF" opacity="1.000000" stroke="none" 
	d="
M42.061886,512.623840 
	C29.175001,513.000000 16.349451,512.940674 3.525554,513.059570 
	C1.439497,513.078918 0.555835,512.722656 0.975306,510.523560 
	C1.128579,509.720001 1.000000,508.862671 1.000000,508.029877 
	C1.000000,340.638641 1.015197,173.247406 0.904336,5.856256 
	C0.901803,2.031789 1.347880,0.843523 5.638408,0.868626 
	C44.112106,1.093730 82.587669,1.000000 121.531342,1.000000 
	C122.119064,1.325804 122.276779,1.784059 122.093277,1.947019 
	C116.158058,7.217720 117.317276,14.258487 117.302475,21.005779 
	C117.300285,22.005615 117.302467,23.005461 117.302124,24.005301 
	C117.298698,33.837109 116.862633,32.996319 108.362221,37.404568 
	C100.138649,41.669254 94.826294,39.883690 89.674370,33.141655 
	C87.575363,30.394808 84.926460,28.002050 82.033745,25.984730 
	C77.090202,22.537209 72.738251,22.321819 68.367645,26.325613 
	C58.785069,35.103954 49.677864,44.393101 40.761261,53.845188 
	C37.060577,57.768112 37.389240,63.029922 41.114754,67.492813 
	C44.641144,71.717171 48.697838,75.460533 52.667675,79.257500 
	C55.650612,82.110542 56.345959,85.015968 54.177292,88.580223 
	C53.574051,89.571655 53.113594,90.661629 52.732674,91.763664 
	C48.549019,103.867371 48.352180,102.154251 36.906124,102.298141 
	C33.407185,102.342133 29.902370,102.170761 26.409510,102.361816 
	C21.324110,102.639969 18.534159,105.000954 17.148964,109.939339 
	C16.513330,112.205444 16.301199,114.516357 16.301880,116.862190 
	C16.304689,126.527313 16.250751,136.192780 16.318193,145.857468 
	C16.396049,157.014450 19.961929,160.582703 30.979342,160.692566 
	C35.311626,160.735779 39.644646,160.719955 43.976875,160.712387 
	C47.423843,160.706375 49.674492,162.184891 50.696186,165.515259 
	C51.037640,166.628265 51.478436,167.712524 51.926346,168.790253 
	C56.511147,179.821609 56.507935,179.818985 48.211098,188.139664 
	C45.858009,190.499527 43.397053,192.759720 41.192783,195.258499 
	C37.479210,199.468246 36.979919,204.706390 40.729397,208.885025 
	C49.406788,218.555664 58.537544,227.834747 68.308815,236.399567 
	C73.210968,240.696442 78.170059,240.064743 83.093605,235.484344 
	C86.997101,231.852890 90.652954,227.962708 94.453369,224.222015 
	C96.335709,222.369186 98.329514,221.076111 101.132355,222.118912 
	C103.954498,223.168915 104.520134,221.624298 104.731689,219.175690 
	C105.462273,210.720032 105.911232,202.208023 107.833458,193.917145 
	C108.752106,189.954834 107.698677,187.504639 104.411400,185.026917 
	C81.361771,167.653610 71.950287,136.469528 81.329559,109.363586 
	C90.844376,81.865959 118.229500,61.950779 146.578918,62.812698 
	C169.633255,63.513630 188.259109,73.458878 201.687714,92.390350 
	C204.086502,95.772133 206.452133,97.033058 210.683746,96.891090 
	C219.478394,96.596062 228.325104,96.045113 237.110626,97.631142 
	C241.241653,98.376900 241.597229,97.804947 240.078812,93.790535 
	C235.459381,81.577766 234.333389,84.452316 244.713333,73.939819 
	C246.703644,71.924103 248.794937,70.003571 250.682373,67.891792 
	C254.514008,63.604694 255.168716,57.539940 251.386414,53.287819 
	C242.863266,43.705997 233.912674,34.476906 224.133331,26.169754 
	C218.844254,21.676901 214.212860,22.370825 209.056564,27.320211 
	C205.450241,30.781832 201.999619,34.402031 198.403503,37.875774 
	C195.573120,40.609821 192.522690,41.488148 188.908798,39.407841 
	C187.468491,38.578739 185.925430,37.917065 184.345932,37.377018 
	C175.660690,34.407467 175.651611,35.384007 175.696793,25.067034 
	C175.704819,23.234030 175.559296,21.388491 175.722702,19.570141 
	C176.333450,12.773891 174.933746,6.677311 169.934052,1.382881 
	C282.782440,1.000000 395.564880,1.032207 508.347107,0.875469 
	C512.603760,0.869554 513.100403,1.988618 513.097778,5.843067 
	C512.984314,173.267426 512.974609,340.691895 513.135193,508.116180 
	C513.139526,512.654297 511.816864,513.108643 507.887817,513.091797 
	C471.571533,512.936218 435.254272,513.000000 398.468658,513.000000 
	C397.896698,510.664734 400.004089,510.597839 401.345612,509.927734 
	C414.827301,503.193176 419.977020,490.989685 415.190674,475.423462 
	C411.520477,463.487335 407.982574,451.454987 402.984680,439.988556 
	C381.476532,390.643524 343.699799,362.684235 290.642303,354.885498 
	C287.282654,354.391632 285.331177,355.988342 283.268158,358.030060 
	C273.805969,367.394287 263.051270,374.931213 250.678467,379.870300 
	C221.490936,391.521637 194.554459,386.359192 169.478363,368.446014 
	C165.001068,365.247620 160.748764,361.739288 156.763718,357.961212 
	C154.406143,355.726105 152.090775,354.704407 148.746384,355.108429 
	C122.770294,358.246490 99.574295,367.993988 79.130768,384.241638 
	C55.965385,402.652496 40.733326,426.428070 31.987646,454.548828 
	C29.761105,461.708038 27.125572,468.739166 24.944271,475.912689 
	C20.399057,490.860229 25.550335,502.848053 39.497875,510.064056 
	C40.541935,510.604279 41.596958,511.099854 42.061886,512.623840 
z"/>
<path fill="#000000" opacity="1.000000" stroke="none" 
	d="
M42.468658,513.000000 
	C39.788830,510.286743 36.150616,510.259552 33.395447,508.165802 
	C22.459202,499.854919 19.736361,487.037201 23.275560,476.599579 
	C29.185610,459.170105 33.992279,441.285339 42.995857,425.026703 
	C51.468258,409.727264 62.602764,396.772766 75.921753,385.372711 
	C89.641823,373.629364 105.180550,365.516235 121.985382,359.574036 
	C129.567383,356.893005 137.730331,356.121582 145.391724,353.821381 
	C154.639099,351.045044 158.495163,358.234070 163.812393,362.463135 
	C178.208511,373.913116 193.656052,382.114349 212.454544,384.196411 
	C234.988586,386.692230 253.906937,378.750153 271.777985,366.598328 
	C275.008179,364.401886 278.418945,361.903015 280.517059,358.730743 
	C284.591980,352.569580 290.312927,352.975006 295.948120,354.134552 
	C308.671112,356.752502 321.280701,359.734650 333.146942,365.475800 
	C344.377136,370.909180 354.845703,377.393311 364.586578,385.112946 
	C375.579803,393.825104 384.228424,404.611542 392.034027,416.166321 
	C402.052246,430.996521 407.632568,447.725189 412.985809,464.555573 
	C415.324829,471.909271 418.185120,478.978271 418.204071,487.087067 
	C418.230865,498.540466 408.721527,509.722992 398.106628,512.639771 
	C279.645782,513.000000 161.291550,513.000000 42.468658,513.000000 
z"/>
<path fill="#000000" opacity="1.000000" stroke="none" 
	d="
M169.531342,1.000000 
	C175.150284,4.430372 177.391922,9.272581 177.005646,15.399714 
	C176.963806,16.063427 176.999207,16.732061 177.000122,17.398411 
	C177.007202,22.562540 175.512894,28.413363 177.467163,32.687225 
	C179.230789,36.544155 186.087204,35.671082 189.954620,38.495613 
	C192.793976,40.569317 194.958618,39.558544 197.067688,37.447975 
	C200.599594,33.913586 204.130661,30.378340 207.662140,26.843519 
	C213.956665,20.543020 218.569519,19.437153 225.084579,25.180822 
	C235.128204,34.035297 245.011337,43.215778 253.275146,53.859184 
	C256.530151,58.051449 255.675064,64.720619 251.937531,68.527008 
	C247.853561,72.686218 243.721161,76.798241 239.581909,80.902634 
	C238.070419,82.401382 236.642136,83.419701 238.402191,86.106735 
	C240.288620,88.986679 240.990845,92.620064 242.431900,95.824791 
	C243.021149,97.135201 243.414780,98.483604 242.660553,99.522690 
	C241.846558,100.644127 240.662735,99.484917 239.602234,99.325859 
	C228.669769,97.686127 217.674667,97.044060 206.720398,98.883614 
	C203.521667,99.420776 203.072540,96.865746 202.211121,95.467316 
	C195.280762,84.216568 185.714142,75.928413 173.866272,70.464310 
	C149.951920,59.435284 124.352448,62.922241 103.891083,79.530838 
	C91.864182,89.293159 84.523239,101.704727 80.740875,116.584175 
	C77.404816,129.707947 78.774979,142.454132 83.463257,154.845551 
	C88.348358,167.757217 96.492287,178.369019 108.168121,185.956879 
	C110.204384,187.280182 110.336761,188.933945 109.929070,190.576691 
	C107.161568,201.727844 106.401413,213.103897 105.814796,224.527420 
	C105.552185,224.659622 105.160599,224.985855 105.031609,224.903046 
	C100.164291,221.778259 96.424141,222.737427 92.932999,227.406158 
	C90.464699,230.707031 87.087357,233.317627 84.203934,236.320953 
	C79.475746,241.245850 73.641632,242.789688 68.023117,237.871857 
	C57.679760,228.818405 47.718433,219.257309 39.006859,208.577652 
	C35.237679,203.956970 36.241241,198.484741 40.320709,194.106995 
	C44.707657,189.399261 49.946449,185.521713 53.599468,180.066086 
	C54.493164,178.731415 54.496693,178.014954 53.978283,176.765152 
	C52.265141,172.635162 50.455292,168.528488 49.066704,164.287094 
	C48.268555,161.849197 46.643036,162.108368 44.826988,161.977341 
	C38.096481,161.491714 31.350674,162.790634 24.594887,161.218246 
	C16.747271,159.391739 15.479548,155.864990 15.167992,149.465759 
	C14.585410,137.499817 14.675261,125.473175 15.121709,113.495506 
	C15.392327,106.235100 18.626497,100.253555 28.225021,100.932739 
	C33.529270,101.308067 38.887978,100.848564 44.210136,101.063126 
	C46.920097,101.172379 48.229561,100.357368 49.125206,97.704926 
	C50.555763,93.468315 52.244095,89.257401 54.388641,85.345467 
	C55.751408,82.859604 53.720860,82.429008 52.826458,81.401711 
	C48.274498,76.173431 42.496929,72.085800 38.659557,66.181000 
	C36.056507,62.175514 36.187042,56.363132 39.349392,53.153557 
	C48.582851,43.782200 57.822285,34.410446 67.296730,25.285288 
	C72.538071,20.237181 78.913963,20.831186 85.007774,26.535217 
	C88.775017,30.061499 92.429146,33.724621 95.923141,37.520458 
	C97.836685,39.599316 99.496048,40.417507 102.012718,38.542095 
	C103.414879,37.497208 105.074905,36.722519 106.720856,36.093201 
	C115.989433,32.549431 116.000008,32.577095 116.000000,22.894941 
	C116.000000,19.563189 116.241714,16.209663 115.944046,12.904720 
	C115.483459,7.790956 117.434357,4.157274 121.914612,1.350146 
	C137.687561,1.000000 153.375122,1.000000 169.531342,1.000000 
z"/>
<path fill="#000000" opacity="1.000000" stroke="none" 
	d="
M286.746033,153.249741 
	C297.778656,166.434753 303.551239,181.541550 307.133148,197.817902 
	C309.050354,206.529816 309.346802,215.382416 309.668182,224.073975 
	C310.051056,234.427811 308.593903,244.982895 306.807373,255.254868 
	C303.514221,274.189301 297.308289,292.291962 287.927246,309.109833 
	C277.059784,328.592468 263.507599,345.599335 242.454636,355.121155 
	C228.767273,361.311646 214.892532,361.614166 200.904510,356.411163 
	C184.589661,350.342682 172.710342,338.748413 162.589127,325.077026 
	C153.523468,312.831482 146.739731,299.296021 141.681732,285.031769 
	C137.546478,273.369781 134.522980,261.364197 132.814636,248.970886 
	C131.296326,237.956177 130.470596,226.961273 131.097290,215.954681 
	C132.766144,186.643967 142.293900,160.616852 165.429840,141.240860 
	C177.744385,130.927628 192.120529,124.994751 208.304489,122.845940 
	C227.398254,120.310776 245.194611,123.575989 261.944458,132.563507 
	C271.431641,137.654053 280.130280,143.993713 286.746033,153.249741 
z"/>
<path fill="#000000" opacity="1.000000" stroke="none" 
	d="
M496.872131,293.380859 
	C498.505310,296.668091 499.042145,299.781250 499.024475,303.065216 
	C498.961761,314.725037 499.095459,326.386566 498.949463,338.044891 
	C498.896698,342.256348 498.188599,346.350861 494.935516,349.642487 
	C492.576630,352.029327 490.048096,353.150421 486.657410,353.055084 
	C479.999756,352.867859 473.333038,353.008789 466.670135,352.994568 
	C464.700012,352.990356 463.312408,352.834900 462.541534,355.675537 
	C461.256531,360.410675 459.153564,365.008881 456.784668,369.330170 
	C455.540497,371.599823 456.819427,372.201447 457.876678,373.369232 
	C462.752136,378.754425 468.617828,383.189850 472.797485,389.254211 
	C477.066956,395.449005 476.297485,400.996185 471.396637,406.039154 
	C462.111694,415.593353 452.631866,424.960052 443.130890,434.300812 
	C441.216949,436.182526 439.178467,437.944122 436.057739,438.078369 
	C431.702118,438.265747 429.389648,437.437897 427.553528,432.517944 
	C421.266907,415.672729 412.334076,400.195312 400.222015,386.722748 
	C399.999878,386.475647 399.715607,386.279846 399.515930,386.017731 
	C395.635803,380.924011 395.920746,381.270782 401.358551,376.846130 
	C415.308990,365.494812 424.882568,351.242340 427.966125,333.250153 
	C432.550140,306.502716 424.348419,283.872284 404.267426,266.039673 
	C392.734070,255.797607 378.893799,249.853531 363.060760,248.887405 
	C353.243958,248.288406 343.856018,249.340195 334.671051,252.706223 
	C332.335419,253.562149 331.775848,252.672531 332.167542,250.354889 
	C334.566711,236.158401 334.462524,221.944763 333.174438,207.607803 
	C332.458649,199.640610 331.068573,191.925751 329.094849,184.230148 
	C328.489319,181.869202 330.392181,180.711349 332.360260,180.024521 
	C335.664154,178.871521 339.107422,178.982071 342.544281,178.990158 
	C353.704651,179.016434 364.865906,178.920517 376.025146,179.035553 
	C381.144287,179.088318 385.738312,180.348938 388.836609,185.133209 
	C389.856323,186.707825 389.993988,188.109207 389.996002,189.728897 
	C390.005127,197.058136 390.072723,204.388535 389.953735,211.715851 
	C389.920044,213.790924 390.166534,215.007431 392.601776,215.327087 
	C394.623169,215.592438 396.967957,216.045792 398.457062,217.277267 
	C406.973389,224.320251 412.720947,220.256577 418.486786,213.211334 
	C421.567230,209.447357 424.815979,205.502518 429.376587,203.254349 
	C434.824524,200.568756 439.834747,202.801117 443.488159,206.333374 
	C453.368652,215.886078 463.679016,225.052856 472.353973,235.802765 
	C477.902985,242.678986 475.489044,248.998108 470.812622,253.682846 
	C466.459839,258.043365 462.166412,262.465912 457.719543,266.728363 
	C456.028320,268.349426 455.732452,269.590179 456.888824,271.818634 
	C458.945038,275.781189 461.223938,279.683807 462.107391,284.206726 
	C462.496124,286.196716 463.941681,287.039429 466.355042,287.106262 
	C474.082733,287.320221 481.868439,285.984863 489.548248,287.959717 
	C492.646698,288.756531 495.218292,290.031555 496.872131,293.380859 
z"/>
<path fill="#000000" opacity="1.000000" stroke="none" 
	d="
M400.749146,285.253723 
	C417.161743,305.299713 416.867035,334.341797 402.127655,353.487457 
	C398.278198,358.487732 393.506866,362.214661 388.754028,366.199677 
	C384.618683,369.666901 382.147552,368.285339 378.948303,365.506439 
	C363.672241,352.237762 345.950134,343.154877 327.158875,336.147644 
	C320.740479,333.754181 313.866486,332.508636 307.127777,331.083344 
	C304.354858,330.496826 304.013275,330.373199 305.632660,327.612488 
	C315.000732,311.641968 322.065704,294.642426 326.913177,276.768768 
	C327.676453,273.954468 329.105896,272.203644 331.587067,271.073303 
	C353.716461,260.992126 374.485718,262.254730 393.786835,278.083771 
	C396.354156,280.189270 398.548859,282.402191 400.749146,285.253723 
z"/>
<path fill="#000000" opacity="1.000000" stroke="none" 
	d="
M115.762787,170.589523 
	C103.971153,164.362961 98.610764,153.452469 96.125900,141.223877 
	C91.565994,118.783386 102.214088,97.818588 121.281723,86.487541 
	C126.840508,83.184204 133.357315,81.708237 140.065536,80.777046 
	C149.967316,79.402557 158.995499,81.502121 167.867371,85.078712 
	C175.497177,88.154579 181.011963,94.159843 186.442795,100.067444 
	C187.913834,101.667618 186.980972,102.368797 184.775543,103.159912 
	C167.127670,109.490364 151.344574,118.820709 138.603683,132.868317 
	C128.620361,143.875534 121.050560,156.308563 115.762787,170.589523 
z"/>
<path fill="#000000" opacity="1.000000" stroke="none" 
	d="
M264.714111,101.000000 
	C271.882355,101.146507 275.113342,104.141655 276.713959,109.335258 
	C277.068024,110.484154 277.474365,112.758255 275.459869,111.643524 
	C267.794098,107.401657 259.504303,104.708160 251.508682,101.000000 
	C255.757019,101.000000 260.005341,101.000000 264.714111,101.000000 
z"/>
</svg>