<svg class="svg-icon" style="width: 1em;height: 1em;vertical-align: middle;fill: currentColor;overflow: hidden;" viewBox="0 0 1024 1024" version="1.1" xmlns="http://www.w3.org/2000/svg"><path d="M843.52 553.152h104.64v52.352h-69.76v261.76H215.232v-261.76H128v-52.352h139.584v261.76h558.4v-261.76h17.472zM162.816 448.448h785.28v104.704h-52.352v-52.352H180.352v52.352H128V448.448h34.88z" fill="#000000" /><path d="M307.392 499.712a230.656 230.656 0 1 1 461.376 0h-51.264a179.392 179.392 0 0 0-358.848 0h-51.2z m230.72-230.656a102.528 102.528 0 1 1 0-205.056 102.528 102.528 0 0 1 0 205.056z m0-51.264A51.2 51.2 0 1 0 540.416 115.2a51.2 51.2 0 0 0-2.304 102.528z" fill="#000000" /></svg>