<svg class="svg-icon" style="width: 1em; height: 1em;vertical-align: middle;fill: currentColor;overflow: hidden;" viewBox="0 0 1024 1024" version="1.1" xmlns="http://www.w3.org/2000/svg"><path d="M353.5 656.4h-25.9c-69.1 0-134.4-24.6-183.8-69.2-24.2-21.9-43.3-47.4-56.7-75.8-14-29.7-21-61.1-21-93.5V228.7c0-60.9 53.7-110.4 119.6-110.4v50c-38.4 0-69.6 27.1-69.6 60.4v189.2c0 103.9 94.9 188.5 211.6 188.5h25.9c114.9 0 208.4-83.3 208.4-185.7v-192c0-33.3-31.2-60.4-69.6-60.4v-50c66 0 119.6 49.5 119.6 110.4v192c0 32-7 63.1-20.8 92.4-13.2 28.1-32.1 53.3-56 74.9-48.9 44.1-113.4 68.4-181.7 68.4z"  /><path d="M486.6 928.3c-92.9 0-168.5-80.9-168.5-180.4V614.1h50V748c0 71.9 53.1 130.4 118.5 130.4 65.3 0 118.5-58.5 118.5-130.4v-90.4h50V748c-0.1 99.4-75.6 180.3-168.5 180.3z"  /><path d="M916.5 707.8h-50v-39.4c0-58.5-47.4-106.1-105.6-106.1-62.2 0-105.6 43.6-105.6 106.1h-50c0-42.2 15.1-81.3 42.4-109.9 28.5-29.8 68.7-46.2 113.2-46.2 85.8 0 155.6 70 155.6 156.1v39.4z"  /><path d="M203.6 133.4m-66.8 0a66.8 66.8 0 1 0 133.6 0 66.8 66.8 0 1 0-133.6 0Z"  /><path d="M489.6 133.4m-66.8 0a66.8 66.8 0 1 0 133.6 0 66.8 66.8 0 1 0-133.6 0Z"  /><path d="M889.6 813.6c-37.1 0-67.3-30.2-67.3-67.3s30.2-67.3 67.3-67.3 67.3 30.2 67.3 67.3-30.2 67.3-67.3 67.3z m0-84.7c-9.6 0-17.3 7.8-17.3 17.3s7.8 17.3 17.3 17.3 17.3-7.8 17.3-17.3-7.8-17.3-17.3-17.3z"  /></svg>