<svg class="svg-icon" style="width: 1em; height: 1em;vertical-align: middle;fill: currentColor;overflow: hidden;" viewBox="0 0 1024 1024" version="1.1" xmlns="http://www.w3.org/2000/svg"><path d="M542.013 479.457c-111.083 24.29-166.615-27.443-169.492-30.208-14.029-13.998-36.73-14.12-50.893-0.215-14.264 13.988-14.48 36.905-0.491 51.16 2.775 2.826 58.43 58.07 164.034 58.07 21.955 0 46.07-2.375 72.305-8.12 19.517-4.27 31.867-23.562 27.597-43.07-4.26-19.527-23.542-31.866-43.06-27.617z m424.448 239.002L814.05 656.896a44.632 44.632 0 0 0-16.599-3.226h-38.84v-8.437c0-4.311-1.126-8.336-2.98-11.93l143.688 39.209a43.276 43.276 0 0 0 11.376 1.536c18.944 0 36.301-12.595 41.534-31.754 6.267-22.958-7.26-46.654-30.218-52.91l-189.287-51.671c-3.758-1.024-7.444-1.526-11.56-1.516l-129.035 0.645c-6.01 14.193-18.565 25.385-34.724 28.928-21.289 4.66-42.946 7.025-64.43 7.025-104.745 0-176.107-56.003-179.087-58.389-10.26-8.181-16.732-19.875-18.197-32.921-1.485-13.056 2.212-25.907 10.414-36.188 9.38-11.776 23.409-18.525 38.472-18.525 10.998 0 21.821 3.759 30.474 10.589 1.454 1.126 29.46 22.517 73.994 32.266l-79.472-51.241c-2.13-1.372-5.253-4.997-5.253-4.997-8.407-7.21-22.692-25.293-34.15-39.824-4.24-5.365-8.131-10.301-11.377-14.243-11.449-13.282-15.412-33.137-9.605-48.292 3.133-8.192 8.857-14.326 16.803-18.238h79.729v-43.714h-22.56V58.88H89.764v190.208h-20.5v20.531c-17.378 1.516-31.253 9.431-34.98 21.207-1.885 5.919-3.472 21.207 22.23 35.42 8.5 4.455 19.17 6.226 29.492 7.936 12.523 2.09 25.477 4.24 33.423 10.916 6.113 5.653 9.452 13.415 12.667 20.91 0.614 1.434 1.239 2.775 1.864 4.158-5.899 31.539 7.24 64.921 35.87 83.405 37.766 24.34 88.136 13.486 112.487-24.3 24.371-37.775 13.486-88.136-24.28-112.497-37.764-24.36-88.145-13.486-112.506 24.28a81.47 81.47 0 0 0-7.158 13.926c-2.888-6.093-6.492-12.319-12.165-17.562-10.26-8.642-24.617-11.028-38.513-13.342-9.973-1.66-19.374-3.216-26.306-6.851-13.374-7.393-19.681-15.893-17.326-23.306 2.12-6.687 11.602-12.708 25.22-14.09v12.974H308.88a43.206 43.206 0 0 0-9.267 14.581c-7.076 18.514-2.376 42.62 11.346 58.542 3.144 3.81 6.984 8.694 11.172 13.988 7.793 9.882 16.834 21.3 24.72 30.198-22.273-2.857-45.21 7.65-60.294 21.914 0 0-6.8 5.806-11.571 13.578-4.567 7.434-8.13 16.701-8.13 16.701l-0.113 0.215c-9.206 26.645-6.247 63.232 21.872 81.378l150.979 97.362a59.756 59.756 0 0 0 5.448 3.112c0 0.287-0.082 0.564-0.082 0.85v8.438h-42.937L201.185 514.284c0.994-1.096 1.946-2.253 2.765-3.544 7.373-11.786 3.8-27.32-7.987-34.703l-68.373-42.824c-11.479-7.198-26.46-3.932-34.068 7.148-19.333-9.452-43.151-3.81-55.798 14.408-13.957 20.111-8.97 47.739 11.152 61.696l314.01 217.958a44.238 44.238 0 0 0 25.271 7.916H446.7c3.727 10.045 13.332 17.233 24.647 17.233h55.696V967.68h-27.126c-11.735 0-21.238 9.513-21.238 21.248 0 11.745 9.513 21.258 21.238 21.258h204.052c11.735 0 21.248-9.513 21.248-21.258 0-11.735-9.523-21.248-21.248-21.248h-27.433V759.572h55.696c11.325 0 20.92-7.188 24.658-17.233h31.938l144.435 58.337a44.296 44.296 0 0 0 16.579 3.236c17.562 0 34.16-10.486 41.124-27.74 9.165-22.713-1.802-48.548-24.505-57.713zM114.32 83.415h244.276v157.481H114.319V83.415z m244.756 283.464c0 19.046 15.442 34.478 34.468 34.478 80.599 0 125.266-21.555 154.388-47.073v55.869c-2.6 11.223-7.373 32.072-13.005 57.078 2.161-0.43 4.29-0.779 6.452-1.25a49.353 49.353 0 0 1 10.577-1.146c23 0 43.285 16.322 48.21 38.82a49.136 49.136 0 0 1 0.328 19.384l122.778-0.615c5.396 0 10.127 0.635 15.093 1.977l17.982 4.915c-10.22-49.91-21.842-99.041-26.634-118.917v-66.407c13.189 27.454 21.411 66.786 20.572 127.079-0.266 19.026 14.95 34.683 33.986 34.949h0.492c18.81 0 34.201-15.114 34.447-33.997 2.294-163.88-58.05-231.803-158.72-269.967-0.082-0.02-0.164-0.02-0.215-0.041l-21.463 22.517-22.118-22.272c-12.309 3.021-35.472 16.292-35.758 16.456-23.44 14.377-38.042 34.1-50.893 51.507-24.668 33.373-45.978 62.178-136.51 62.178-19.015 0-34.457 15.442-34.457 34.478z m281.047-171.592c45.957 0 83.23-37.253 83.23-83.22 0-19.22-6.666-36.783-17.653-50.842h-26.91V48.599h14.786c-5.182-4.352-10.804-8.182-16.937-11.182-6.308-13.885-20.265-23.603-36.496-23.603-16.2 0-30.115 9.697-36.464 23.572-6.155 3-11.797 6.85-16.988 11.213h16.896v12.626h-29.02c-10.937 14.06-17.634 31.621-17.634 50.842 0 45.967 37.253 83.22 83.19 83.22z m0.02-163.922c12.483 0 22.61 10.138 22.61 22.61s-10.127 22.61-22.61 22.61c-12.451 0-22.59-10.138-22.59-22.61s10.139-22.61 22.59-22.61z m-381.46 80.865c-8.356 0-15.882 3.523-21.207 9.145-5.335-5.622-12.851-9.145-21.207-9.145-16.159 0-29.256 13.097-29.256 29.266 0 40.581 50.473 66.315 50.473 66.315s50.473-25.723 50.473-66.315c-0.01-16.169-13.117-29.266-29.276-29.266z"  /></svg>