<svg class="svg-icon" style="width: 1em; height: 1em;vertical-align: middle;fill: currentColor;overflow: hidden;" viewBox="0 0 1024 1024" version="1.1" xmlns="http://www.w3.org/2000/svg"><path d="M243.2 779.946667c8.533333 8.533333 12.8 18.773333 12.8 30.72s-4.266667 21.896533-12.8 29.866666c-7.970133 8.533333-17.92 12.8-29.866667 12.8s-22.186667-4.266667-30.72-12.8c-7.970133-7.970133-11.946667-17.92-11.946666-29.866666s3.976533-22.186667 11.946666-30.72c8.533333-7.9872 18.773333-11.946667 30.72-11.946667s21.896533 3.959467 29.866667 11.946667zM426.666667 810.666667c0 11.946667-4.266667 21.896533-12.8 29.866666-7.970133 8.533333-17.92 12.8-29.866667 12.8s-22.186667-4.266667-30.72-12.8c-7.970133-7.970133-11.946667-17.92-11.946667-29.866666s3.976533-22.186667 11.946667-30.72c8.533333-7.9872 18.773333-11.946667 30.72-11.946667s21.896533 3.959467 29.866667 11.946667c8.533333 8.533333 12.8 18.773333 12.8 30.72z"  /><path d="M853.333333 955.733333H170.666667c-66.030933 0-102.4-36.369067-102.4-102.4V170.666667c0-66.030933 36.369067-102.4 102.4-102.4h682.666666c66.030933 0 102.4 36.369067 102.4 102.4v682.666666c0 66.030933-36.369067 102.4-102.4 102.4zM102.4 699.733333v153.6c0 47.223467 21.0432 68.266667 68.266667 68.266667h682.666666c47.223467 0 68.266667-21.0432 68.266667-68.266667v-153.6H102.4z m0-34.133333h819.2V170.666667c0-47.223467-21.0432-68.266667-68.266667-68.266667H170.666667c-47.223467 0-68.266667 21.0432-68.266667 68.266667v494.933333z m281.6 204.8a58.5728 58.5728 0 0 1-42.786133-17.800533C329.966933 841.3696 324.266667 827.255467 324.266667 810.666667c0-16.366933 5.563733-30.6176 16.554666-42.359467 12.544-11.810133 26.811733-17.373867 43.178667-17.373867 16.605867 0 30.72 5.700267 41.949867 16.964267A58.589867 58.589867 0 0 1 443.733333 810.666667c0 16.571733-6.2976 31.214933-18.210133 42.3424-10.308267 11.093333-24.951467 17.390933-41.5232 17.390933z m0-85.333333c-7.645867 0-13.704533 2.338133-19.063467 7.355733-4.1984 4.539733-6.536533 10.615467-6.536533 18.244267 0 7.406933 2.2016 13.073067 6.946133 17.800533 5.3248 5.307733 11.246933 7.799467 18.653867 7.799467 7.2704 0 12.629333-2.286933 17.390933-7.389867 5.9392-5.5808 8.209067-10.939733 8.209067-18.210133a24.917333 24.917333 0 0 0-7.799467-18.653867c-4.744533-4.744533-10.3936-6.946133-17.800533-6.946133z m-170.666667 85.333333a58.5728 58.5728 0 0 1-42.786133-17.800533C159.300267 841.3696 153.6 827.255467 153.6 810.666667c0-16.366933 5.563733-30.6176 16.554667-42.359467 12.544-11.810133 26.811733-17.373867 43.178666-17.373867 16.605867 0 30.72 5.700267 41.949867 16.964267 11.793067 11.810133 17.783467 26.197333 17.783467 42.769067s-6.2976 31.214933-18.210134 42.3424C244.548267 864.1024 229.905067 870.4 213.333333 870.4z m0-85.333333c-7.645867 0-13.704533 2.338133-19.063466 7.355733-4.1984 4.539733-6.536533 10.615467-6.536534 18.244267 0 7.406933 2.2016 13.073067 6.946134 17.800533 5.3248 5.307733 11.246933 7.799467 18.653866 7.799467 7.2704 0 12.629333-2.286933 17.390934-7.389867 5.9392-5.5808 8.209067-10.939733 8.209066-18.210133a24.917333 24.917333 0 0 0-7.799466-18.653867l-0.017067-0.017067c-4.727467-4.727467-10.376533-6.929067-17.783467-6.929066z"  /><path d="M426.666667 631.466667a34.1504 34.1504 0 0 1-30.532267-18.858667L320.238933 460.8H170.666667a34.133333 34.133333 0 0 1 0-68.266667h170.666666c12.919467 0 24.746667 7.304533 30.532267 18.858667l51.336533 102.690133 142.4384-356.096a34.1504 34.1504 0 0 1 64.085334 1.8944L707.259733 392.533333h145.220267a34.133333 34.133333 0 0 1 0 68.266667H682.666667a34.133333 34.133333 0 0 1-32.375467-23.3472l-55.8592-167.594667-136.055467 340.155734a34.133333 34.133333 0 0 1-30.276266 21.418666L426.666667 631.466667z"  /></svg>