<svg class="svg-icon" style="width: 1em;height: 1em;vertical-align: middle;fill: currentColor;overflow: hidden;" viewBox="0 0 1024 1024" version="1.1" xmlns="http://www.w3.org/2000/svg"><path d="M803.2 708.288v-25.472c0-74.24-56.064-131.328-128.768-131.328h-16.768c-72.704 0-134.272 62.784-134.272 136.96v85.696c0 28.544-22.4 57.088-56 57.088H428.16a50.816 50.816 0 0 1-50.432-51.392V639.296a271.424 271.424 0 0 0 218.24-246.4l16.896-133.44c0-62.72-50.432-114.112-112-114.112h-33.536a54.656 54.656 0 0 0-33.536-11.456c-30.912 0-56.064 25.6-56.064 57.088 0 31.616 25.024 57.152 56.064 57.152 18.24 0 34.56-8.96 44.736-22.912h22.4c16.704 0 33.536 17.216 33.536 34.24L517.696 387.2c-11.136 102.72-89.472 176.896-190.208 176.896-89.6 0-162.304-68.48-167.936-154.048l-16.64-150.528c0-17.024 16.768-34.24 33.536-34.24h21.568c10.24 10.624 24.32 17.216 39.936 17.216 30.912 0 56.064-25.6 56.064-57.152a56.512 56.512 0 0 0-56.064-57.088 54.976 54.976 0 0 0-39.936 17.152h-21.568c-61.504 0-112 51.328-112 119.808l16.832 150.4c10.368 121.728 102.336 213.952 218.24 226.816v137.344c0 74.24 55.936 131.328 128.704 131.328h33.536c78.336 0 139.968-62.848 139.968-136.96v-85.76c0-28.48 22.4-57.024 55.936-57.024h16.768c27.968 0 50.304 22.848 50.304 51.264v21.76c-49.6 14.016-83.84 58.752-83.84 115.2 0 68.48 50.304 119.872 117.504 119.872 67.136 0 117.568-51.328 117.568-119.808 0-51.904-29.248-94.08-72.832-111.296z m-44.8 151.488a38.656 38.656 0 0 1-39.104-39.936c0-22.848 16.768-40 39.104-40 22.4 0 39.168 17.152 39.168 40a38.656 38.656 0 0 1-39.168 39.936z" fill="#000000" /></svg>