<svg class="svg-icon" style="width: 1em; height: 1em;vertical-align: middle;fill: currentColor;overflow: hidden;" viewBox="0 0 1024 1024" version="1.1" xmlns="http://www.w3.org/2000/svg"><path d="M694.857143 611.265306c-8.359184 0-16.195918-5.22449-19.330612-13.061224-16.718367-42.840816-50.677551-77.844898-92.47347-96.130613-10.44898-4.702041-15.15102-17.240816-10.448979-27.689796 4.702041-10.44898 17.240816-15.15102 27.689796-10.448979 52.244898 22.987755 94.040816 66.35102 114.416326 119.118367 4.179592 10.971429-1.044898 22.987755-12.016326 27.167347-2.612245 0.522449-5.22449 1.044898-7.836735 1.044898zM329.142857 611.265306c-2.612245 0-5.22449-0.522449-7.836735-1.567347-10.971429-4.179592-16.195918-16.195918-12.016326-27.167347 20.897959-52.767347 62.693878-96.130612 114.938775-119.118367 10.44898-4.702041 22.987755 0 27.689796 10.448979 4.702041 10.44898 0 22.987755-10.448979 27.689796-41.795918 18.285714-75.755102 53.812245-92.47347 96.130613-3.657143 8.359184-11.493878 13.583673-19.853061 13.583673z"  /><path d="M512 533.942857c-76.277551 0-138.971429-62.171429-138.971429-138.971428S435.722449 256 512 256s138.971429 62.171429 138.971429 138.971429-62.171429 138.971429-138.971429 138.971428zM512 297.795918c-53.289796 0-97.17551 43.363265-97.17551 97.175511 0 53.289796 43.363265 97.17551 97.17551 97.17551s97.17551-43.363265 97.17551-97.17551c0-53.289796-43.885714-97.17551-97.17551-97.175511z"  /><path d="M846.367347 741.877551H177.632653c-45.97551 0-83.591837-37.616327-83.591837-83.591837V208.979592c0-45.97551 37.616327-83.591837 83.591837-83.591837h668.734694c45.97551 0 83.591837 37.616327 83.591837 83.591837v449.306122c0 45.97551-37.616327 83.591837-83.591837 83.591837zM177.632653 167.183673c-22.987755 0-41.795918 18.808163-41.795918 41.795919v449.306122c0 22.987755 18.808163 41.795918 41.795918 41.795919h668.734694c22.987755 0 41.795918-18.808163 41.795918-41.795919V208.979592c0-22.987755-18.808163-41.795918-41.795918-41.795919H177.632653z"  /><path d="M760.163265 898.612245h-496.32653c-11.493878 0-20.897959-9.404082-20.897959-20.897959s9.404082-20.897959 20.897959-20.897959h496.32653c11.493878 0 20.897959 9.404082 20.897959 20.897959s-9.404082 20.897959-20.897959 20.897959z"  /><path d="M590.367347 898.612245c-11.493878 0-20.897959-9.404082-20.897959-20.897959v-156.734694c0-11.493878 9.404082-20.897959 20.897959-20.897959s20.897959 9.404082 20.897959 20.897959v156.734694c0 11.493878-9.404082 20.897959-20.897959 20.897959zM433.632653 898.612245c-11.493878 0-20.897959-9.404082-20.897959-20.897959v-156.734694c0-11.493878 9.404082-20.897959 20.897959-20.897959s20.897959 9.404082 20.897959 20.897959v156.734694c0 11.493878-9.404082 20.897959-20.897959 20.897959z"  /></svg>