<svg class="svg-icon" style="width: 1em;height: 1em;vertical-align: middle;fill: currentColor;overflow: hidden;" viewBox="0 0 1024 1024" version="1.1" xmlns="http://www.w3.org/2000/svg"><path d="M749.312 313.792c28.096 0 50.944 23.168 50.944 51.648v373.056a51.328 51.328 0 0 1-50.944 51.584h-228.48l-132.288 98.816a39.552 39.552 0 0 1-15.232 6.4l-6.848 0.704a36.864 36.864 0 0 1-30.08-15.552 38.336 38.336 0 0 1-5.632-31.872l7.424-58.496H178.944A51.328 51.328 0 0 1 128 738.496v-373.12c0-28.416 22.848-51.584 50.944-51.584h570.368z m-0.896 51.648l-569.472 0.896 0.896 372.16 187.84-0.96c7.488 0 14.592 3.264 19.52 8.96a26.432 26.432 0 0 1 6.208 20.672l-7.424 58.432 110.912-82.88a25.728 25.728 0 0 1 15.36-5.12h237.056l-0.896-372.16zM911.36 128c26.752 0 48.576 22.08 48.576 49.216v337.728c0 27.136-21.76 49.152-48.64 49.152h-55.424v-52.48h52.224V180.48H421.76v56.96h-51.84V177.28c0-27.136 21.76-49.216 48.64-49.216h492.8z" fill="#000000" /></svg>