<svg class="svg-icon" style="width: 1em;height: 1em;vertical-align: middle;fill: currentColor;overflow: hidden;" viewBox="0 0 1024 1024" version="1.1" xmlns="http://www.w3.org/2000/svg"><path d="M860.8 732.352H224a95.488 95.488 0 0 1-95.104-95.68V223.68A95.488 95.488 0 0 1 224 128h636.8a95.488 95.488 0 0 1 95.168 95.68v412.992a95.488 95.488 0 0 1-95.104 95.68zM224 186.56a37.056 37.056 0 0 0-36.928 37.12v412.992c0 20.48 16.512 37.12 36.928 37.12h636.8a37.056 37.056 0 0 0 36.928-37.12V223.68a37.056 37.056 0 0 0-36.864-37.12H224zM926.848 846.72H158.08v-58.56h768.832v58.56z" fill="#000000" /><path d="M375.36 586.24a35.328 35.328 0 0 1-33.216-23.04L312.96 486.144H219.712V427.52h108.8c14.72 0.128 27.904 9.216 33.152 23.04l13.696 36.096 69.76-183.232A35.456 35.456 0 0 1 512 305.152l51.456 158.784 51.648-148.672a35.456 35.456 0 0 1 64.832-5.12l59.904 111.872h125.248v58.624H726.4a35.456 35.456 0 0 1-31.296-18.816l-41.984-78.4-56.768 163.584a35.584 35.584 0 0 1-33.6 23.936h-0.384a35.584 35.584 0 0 1-33.408-24.64l-52.416-161.792-67.968 178.752a35.328 35.328 0 0 1-33.28 23.04z" fill="#000000" /></svg>