<svg class="svg-icon" style="width: 1em;height: 1em;vertical-align: middle;fill: currentColor;overflow: hidden;" viewBox="0 0 1024 1024" version="1.1" xmlns="http://www.w3.org/2000/svg"><path d="M753.152 128A143.04 143.04 0 0 1 896 270.848v482.304A143.04 143.04 0 0 1 753.152 896H270.848A143.04 143.04 0 0 1 128 753.152V270.848A143.04 143.04 0 0 1 270.848 128h482.304z m0 54.208H270.848c-48.896 0-88.64 39.808-88.64 88.704v482.24c0 48.896 39.744 88.64 88.64 88.64h482.304c48.896 0 88.64-39.744 88.64-88.64V270.848c0-48.896-39.744-88.64-88.64-88.64z m-172.672 115.2c14.976 0 27.072 12.16 27.072 27.136v410.88a27.072 27.072 0 1 1-54.208 0V324.48c0-14.976 12.16-27.072 27.136-27.072zM443.52 431.488c14.976 0 27.136 12.16 27.136 27.136v276.8a27.072 27.072 0 0 1-54.208 0V458.56c0-14.976 12.16-27.136 27.072-27.136zM306.56 565.376c14.976 0 27.136 12.16 27.136 27.136v142.848a27.072 27.072 0 0 1-54.208 0V592.512c0-14.976 12.16-27.136 27.072-27.136z m410.88 0c14.912 0 27.072 12.16 27.072 27.136v142.848a27.136 27.136 0 0 1-54.208 0V592.512c0-14.976 12.16-27.136 27.136-27.136z" fill="#000000" /></svg>